<svg width="39" height="37" viewBox="0 0 39 37" fill="none" xmlns="http://www.w3.org/2000/svg">
<path d="M11.2886 8C12.3328 8 13.2725 8.08467 14.1342 8.25734C14.9905 8.42835 15.721 8.71059 16.338 9.10075C16.9461 9.49091 17.4213 10.0089 17.7635 10.6597C18.095 11.3023 18.2599 12.1058 18.2599 13.0555C18.2599 14.0848 18.0117 14.9449 17.5135 15.6305C17.0117 16.3179 16.2724 16.8807 15.2866 17.3157C16.6288 17.6793 17.6234 18.3152 18.2829 19.2184C18.946 20.1298 19.2705 21.2206 19.2705 22.499C19.2705 23.5367 19.0595 24.4282 18.6358 25.177C18.2274 25.9146 17.635 26.5491 16.9089 27.0265C16.1567 27.517 15.3166 27.8769 14.4285 28.0891C13.4974 28.318 12.5385 28.4329 11.5758 28.4311H1V8H11.2886ZM10.6662 16.2548C11.5173 16.2548 12.2229 16.0655 12.7796 15.682C13.3328 15.3035 13.6005 14.6792 13.6005 13.8242C13.6005 13.3493 13.5101 12.9575 13.3328 12.6504C13.1601 12.3549 12.9044 12.1092 12.5935 11.9398C12.268 11.759 11.9088 11.6379 11.535 11.5828C11.1276 11.5117 10.7137 11.4778 10.2992 11.4816H5.80476V16.2548H10.6662V16.2548ZM10.934 24.9529C11.4074 24.9529 11.8577 24.9147 12.2814 24.825C12.7087 24.7387 13.0881 24.5992 13.4108 24.3917C13.7335 24.1925 13.9994 23.9219 14.1909 23.5765C14.3842 23.2345 14.4781 22.7879 14.4781 22.2516C14.4781 21.199 14.1608 20.4503 13.5331 19.997C12.9037 19.5487 12.0598 19.3263 11.0262 19.3263H5.80476V24.9545H10.934V24.9529ZM26.1195 24.8848C26.7702 25.4792 27.7081 25.778 28.9279 25.778C29.8019 25.778 30.5572 25.5705 31.1937 25.1587C31.8214 24.7453 32.2043 24.3037 32.3515 23.8471H36.1722C35.5588 25.6269 34.628 26.8987 33.355 27.6641C32.0979 28.4328 30.5679 28.8146 28.7807 28.8146C27.5361 28.8146 26.4156 28.627 25.4121 28.2551C24.4489 27.9039 23.5784 27.3612 22.8608 26.6646C22.1549 25.9517 21.6093 25.1133 21.2562 24.1991C20.8681 23.1882 20.676 22.1205 20.6889 21.0463C20.6889 19.9406 20.8857 18.9062 21.2722 17.9516C21.6391 17.0288 22.2025 16.1854 22.9281 15.4728C23.6462 14.7755 24.4972 14.226 25.4883 13.8225C26.5305 13.4121 27.652 13.2075 28.7825 13.2215C30.1193 13.2215 31.2877 13.4639 32.2912 13.952C33.2643 14.418 34.1081 15.0899 34.7556 15.9144C35.3992 16.7329 35.8584 17.671 36.1439 18.7219C36.4293 19.7712 36.5286 20.867 36.447 22.0142H25.0451C25.0468 23.183 25.467 24.2904 26.1195 24.8848V24.8848ZM31.1051 17.1131C30.5891 16.5785 29.7168 16.2897 28.6495 16.2897C27.9563 16.2897 27.3836 16.3976 26.9226 16.6201C26.5011 16.8194 26.1272 17.0967 25.8234 17.4352C25.5566 17.7426 25.3588 18.0972 25.2419 18.4779C25.1396 18.7953 25.0736 19.122 25.0451 19.4524H32.105C32.0022 18.4164 31.6228 17.6511 31.1051 17.1131V17.1131ZM24.1586 9.37137H33.0039V11.3886H24.1586V9.37137Z" fill="white"/>
</svg>
