<svg width="38" height="38" viewBox="0 0 38 38" fill="none" xmlns="http://www.w3.org/2000/svg">
<path d="M20.5833 33.25H14.25V14.25H20.5833V17.4167C21.2501 16.5684 22.0963 15.8782 23.0612 15.3956C24.0262 14.913 25.086 14.6499 26.1646 14.6253C28.051 14.6357 29.8562 15.3938 31.1844 16.7334C32.5127 18.0729 33.2555 19.8844 33.25 21.7708V33.25H26.9167V22.5625C26.7942 21.7068 26.3667 20.9242 25.713 20.3586C25.0593 19.7931 24.2233 19.4826 23.3589 19.4845C22.972 19.4967 22.5916 19.587 22.2405 19.7499C21.8894 19.9127 21.5747 20.1449 21.3155 20.4323C21.0563 20.7198 20.8578 21.0566 20.732 21.4227C20.6062 21.7887 20.5556 22.1764 20.5833 22.5625V33.25ZM11.0833 33.25H4.75V14.25H11.0833V33.25ZM7.91667 11.0833C7.07681 11.0833 6.27136 10.7497 5.6775 10.1558C5.08363 9.56197 4.75 8.75652 4.75 7.91667C4.75 7.07681 5.08363 6.27136 5.6775 5.6775C6.27136 5.08363 7.07681 4.75 7.91667 4.75C8.75652 4.75 9.56197 5.08363 10.1558 5.6775C10.7497 6.27136 11.0833 7.07681 11.0833 7.91667C11.0833 8.75652 10.7497 9.56197 10.1558 10.1558C9.56197 10.7497 8.75652 11.0833 7.91667 11.0833Z" fill="white"/>
</svg>
