<svg width="37" height="37" viewBox="0 0 37 37" fill="none" xmlns="http://www.w3.org/2000/svg">
<path d="M33.9167 18.5002C33.9193 20.5308 33.5195 22.5418 32.7403 24.417C31.9612 26.2922 30.8182 27.9944 29.3773 29.4252C27.9482 30.8518 26.252 31.9827 24.3856 32.7534C22.5193 33.5241 20.5193 33.9195 18.5001 33.9168C9.98543 33.9168 3.08339 27.0148 3.08339 18.5002C3.078 14.5472 4.59643 10.7442 7.32297 7.88195C8.76161 6.36387 10.4949 5.15531 12.4167 4.33024C14.3386 3.50517 16.4086 3.08094 18.5001 3.08351C20.5193 3.08089 22.5193 3.47624 24.3856 4.24694C26.252 5.01764 27.9482 6.14859 29.3773 7.57515C30.8182 9.006 31.9612 10.7082 32.7403 12.5834C33.5195 14.4586 33.9193 16.4696 33.9167 18.5002V18.5002Z" stroke="white" stroke-width="3" stroke-linecap="round" stroke-linejoin="round"/>
<path d="M33.9167 18.5001C31.6674 18.5001 25.4622 17.6522 19.9084 20.0903C13.8751 22.7397 9.50674 26.849 7.60278 29.4051" stroke="white" stroke-width="3" stroke-linecap="round" stroke-linejoin="round"/>
<path d="M12.7188 4.2041C15.1315 6.43104 20.3963 12.1013 22.3542 17.7291C24.3121 23.3578 25.0367 30.2783 25.4838 32.2478" stroke="white" stroke-width="3" stroke-linecap="round" stroke-linejoin="round"/>
<path d="M3.20215 16.5729C6.11436 16.7487 13.8235 16.9067 18.7568 14.8C23.6901 12.6933 27.9351 8.81835 29.3912 7.58887" stroke="white" stroke-width="3" stroke-linecap="round" stroke-linejoin="round"/>
<path d="M4.23962 24.3687C5.59807 27.6569 8.04808 30.3767 11.1771 32.07" stroke="white" stroke-width="3" stroke-linecap="round" stroke-linejoin="round"/>
<path d="M3.08339 18.5001C3.078 14.5471 4.59643 10.7441 7.32297 7.88184" stroke="white" stroke-width="3" stroke-linecap="round" stroke-linejoin="round"/>
<path d="M18.5001 3.08351C16.4086 3.08094 14.3386 3.50517 12.4168 4.33024C10.4949 5.15531 8.76164 6.36386 7.323 7.88195" stroke="white" stroke-width="3" stroke-linecap="round" stroke-linejoin="round"/>
<path d="M24.6667 4.36621C26.4224 5.13438 28.0198 6.22256 29.3773 7.57519C30.8182 9.00603 31.9612 10.7082 32.7404 12.5834C33.5195 14.4586 33.9194 16.4696 33.9168 18.5002C33.9168 20.3988 33.5737 22.2164 32.9455 23.896" stroke="white" stroke-width="3" stroke-linecap="round" stroke-linejoin="round"/>
<path d="M18.5 33.9169C20.5192 33.9196 22.5192 33.5242 24.3856 32.7535C26.252 31.9828 27.9482 30.8519 29.3772 29.4253" stroke="white" stroke-width="3" stroke-linecap="round" stroke-linejoin="round"/>
</svg>
